PathFileType	4	(X/Y/Z)	D:\TRACE\spotREDO_2-26-24\spot_justBody_Motion_2_8-platform.trc
DataRate	CameraRate	NumFrames	NumMarkers	Units	OrigDataRate	OrigDataStartFrame	OrigNumFrames
100.00	100.00	      42	5	mm	100.00	4376	      7000
Frame#	Time	Left_Front			Right_Front			Left_Aft			Right_Aft			Post			
		X1	Y1	Z1	X2	Y2	Z2	X3	Y3	Z3	X4	Y4	Z4	X5	Y5	Z5	

4376	43.750	-646.45618	38.69552	-563.06488	768.37085	41.99147	-478.76321	-717.51776	-40.44360	653.12012	852.72473	-32.53725	657.04767	62.68806	693.61969	-923.89587	
4377	43.760	-646.64923	39.45701	-562.73785	768.29095	42.66244	-478.56958	-717.48401	-41.06629	653.22986	852.66638	-33.63789	657.29053	62.74810	695.05194	-922.66559	
4378	43.770	-646.61090	40.56720	-562.49689	768.32153	43.39653	-478.10880	-717.58887	-42.34599	653.40448	852.77716	-34.61868	657.31519	62.79240	696.43457	-921.40814	
4379	43.780	-646.55743	41.26372	-562.21375	768.39514	44.30944	-477.88666	-717.46899	-43.09965	653.64227	852.83606	-35.29092	657.51147	62.42958	697.68848	-920.20984	
4380	43.790	-646.42456	41.76762	-561.96552	768.29248	45.01979	-477.68744	-717.38293	-44.07318	653.79907	852.60693	-36.48271	657.56635	62.50804	699.22009	-919.01556	
4381	43.800	-646.70251	43.02545	-561.82275	768.34277	45.68141	-477.41129	-717.41388	-44.94802	654.09399	852.60382	-37.09539	657.63812	62.39425	700.30682	-917.67487	
4382	43.810	-646.67621	43.68541	-561.50244	768.20868	46.30823	-477.15494	-717.61255	-45.64294	654.10950	852.44055	-38.11377	657.86597	62.38469	701.71991	-916.69525	
4383	43.820	-646.73431	44.21169	-561.27557	768.07025	46.84735	-476.81192	-717.61273	-46.59516	654.31622	852.32202	-39.02216	657.90686	62.01045	702.66467	-915.64301	
4384	43.830	-647.15125	45.02343	-560.91608	767.75800	47.40125	-476.52637	-717.82910	-47.39461	654.47308	852.12885	-39.95988	657.81018	61.80262	703.91583	-914.42816	
4385	43.840	-647.48712	45.72469	-560.65509	767.34546	48.01778	-476.19614	-718.24707	-48.08256	654.55530	852.30475	-40.03839	658.71631	61.37289	704.96082	-913.53156	
4386	43.850	-647.75983	46.23872	-560.45465	766.92169	48.77736	-476.03430	-718.61121	-48.73420	654.61206	851.24481	-41.09052	658.06012	61.44389	706.24152	-912.32147	
4387	43.860	-647.90619	46.79920	-560.35687	766.60254	49.37310	-476.00888	-718.90033	-49.38572	654.76196	851.18042	-41.26645	658.96161	60.96500	707.08630	-911.20630	
4388	43.870	-648.58685	47.73580	-560.11176	766.29181	49.82795	-475.92719	-719.13623	-49.70860	654.90704	851.23621	-41.80920	658.98199	60.33241	708.00519	-910.57428	
4389	43.880	-648.83234	48.15704	-559.83807	766.00391	50.11227	-475.77402	-719.49725	-50.22614	654.99335	850.66101	-42.65808	659.21075	60.25191	708.71460	-909.71588	
4390	43.890	-648.96161	48.36897	-559.73096	765.68811	50.36765	-475.43442	-719.99738	-50.79598	655.09772	850.64697	-42.87213	659.30865	60.02415	709.57343	-908.99438	
4391	43.900	-649.52026	48.84410	-559.46924	765.16992	50.81367	-475.26761	-720.36328	-51.49370	655.15363	850.39270	-43.66867	659.13623	59.54090	710.35150	-908.39703	
4392	43.910	-650.34332	49.61268	-559.25562	764.80090	51.24273	-475.07269	-720.73199	-52.23816	655.28992	849.71924	-44.31209	659.11151	58.91433	711.20111	-907.68402	
4393	43.920	-650.65613	50.00908	-558.97815	764.49298	51.53165	-474.87155	-721.20343	-52.63506	655.32031	849.10999	-44.72219	659.44049	58.69939	711.83942	-907.22595	
4394	43.930	-650.93958	50.22855	-558.96161	763.98785	52.14329	-474.73981	-721.63153	-53.00281	655.46057	848.64380	-44.96722	659.49420	58.25478	712.45428	-906.80469	
4395	43.940	-651.49194	50.58632	-558.80859	763.59619	52.22685	-474.57492	-722.05255	-53.36171	655.53314	848.22424	-45.25318	659.42047	57.73875	713.05133	-906.35767	
4396	43.950	-651.81757	50.80795	-558.75873	763.06104	52.49629	-474.34235	-722.66638	-53.84398	655.36035	847.92981	-45.52339	659.35535	57.07389	713.48901	-905.76678	
4397	43.960	-652.37567	51.24200	-558.72638	762.43884	52.85637	-474.41379	-723.17322	-54.05822	655.54913	847.28668	-46.34404	659.33826	56.63622	713.96057	-905.10553	
4398	43.970	-653.06238	51.61587	-558.68585	762.03027	53.14709	-474.39319	-723.72205	-54.25920	655.50793	846.77649	-46.69143	659.33112	56.27993	714.36194	-904.64465	
4399	43.980	-653.62598	51.96857	-558.58392	761.59210	53.21873	-474.22830	-723.99121	-54.38589	655.55835	846.24622	-46.96314	659.50183	55.96244	714.81824	-904.11328	
4400	43.990	-653.95343	52.12524	-558.43073	760.99878	53.45476	-474.18280	-724.55798	-54.70969	655.64349	845.96466	-46.96466	659.55658	55.14605	715.21497	-903.77924	
4401	44.000	-654.56976	52.20261	-558.38525	760.19861	53.49432	-474.07101	-725.21698	-54.96746	655.63348	845.31244	-47.46079	659.49799	54.52278	715.43683	-903.50848	
4402	44.010	-655.19379	52.26056	-558.30121	759.65002	53.62908	-474.11511	-725.75140	-55.07390	655.65912	844.59723	-47.31758	659.50500	53.90265	715.78351	-903.30884	
4403	44.020	-655.78925	52.22428	-558.17059	759.06366	53.68405	-474.12701	-726.54053	-55.28067	655.85999	843.98328	-47.37304	659.69275	53.43457	715.90668	-903.26801	
4404	44.030	-656.54816	52.44579	-558.10699	758.43420	53.69919	-473.98935	-727.06995	-55.46467	655.89368	843.29236	-47.58275	659.67261	52.78191	716.05847	-903.12097	
4405	44.040	-657.08966	52.54032	-558.07849	757.86639	53.84246	-473.97183	-727.62909	-55.40702	655.90143	842.76801	-47.66944	659.73541	52.17570	716.17737	-903.13403	
4406	44.050	-657.63666	52.64039	-558.14270	757.30060	53.86336	-473.99097	-728.31897	-55.44784	655.88300	842.04669	-47.54716	659.77118	51.64737	716.10742	-903.04846	
4407	44.060	-658.55035	52.66774	-558.24750	756.62830	53.91308	-473.98969	-729.02423	-55.42962	655.87372	841.58942	-47.60695	659.78583	51.01699	715.99805	-903.32611	
4408	44.070	-659.03162	52.64435	-558.18811	755.82227	54.06114	-474.11722	-729.78503	-55.48120	655.80292	840.73657	-47.44727	659.94806	50.74625	715.81946	-903.44360	
4409	44.080	-659.90906	52.51229	-558.30841	754.96338	54.13411	-474.13098	-730.33191	-55.46945	655.71051	840.06378	-47.46301	660.00311	49.09293	715.97229	-903.50177	
4410	44.090	-660.67755	52.35957	-558.35114	754.42615	53.85148	-474.14642	-731.08209	-55.28491	655.79590	839.15802	-47.41207	659.93793	47.75188	715.94397	-903.90216	
4411	44.100	-661.23065	52.14916	-558.35730	753.66333	53.58653	-474.22137	-731.83795	-54.94553	655.61047	838.62482	-47.37057	659.95697	47.61198	715.45557	-903.78961	
4412	44.110	-662.26123	52.27129	-558.47357	752.91516	53.42166	-474.10974	-732.68292	-55.01384	655.55853	837.83020	-47.13557	659.93494	47.16178	715.13495	-903.91705	
4413	44.120	-662.73120	52.05702	-558.47888	752.21362	53.21579	-474.12341	-733.48511	-54.69286	655.50952	837.07153	-46.82780	659.75177	46.46007	714.88556	-904.12976	
4414	44.130	-663.89099	51.70830	-558.60907	751.55798	52.96847	-474.28027	-734.27307	-54.37608	655.62793	836.16235	-46.60224	659.73492	45.74662	714.57733	-904.32104	
4415	44.140	-664.51642	51.73454	-558.59918	750.49176	52.66581	-474.29321	-735.02863	-54.18210	655.66016	835.30682	-46.31658	659.64453	44.49174	713.98486	-904.77789	
4416	44.150	-665.43542	51.25974	-558.75885	749.88879	52.47283	-474.41089	-735.77161	-54.00523	655.60187	834.30487	-45.94010	659.66754	43.82090	713.69519	-905.18225	
4417	44.160	-666.18158	50.82976	-558.75085	748.86707	52.24773	-474.51086	-736.66248	-53.46922	655.61578	833.19177	-46.39059	658.76904	43.42503	713.34869	-905.51263	
